{
  "accessors": [
    {
      "bufferView": 2,
      "componentType": 5126,
      "count": 65532,
      "max": [
        1.0092421770095825,
        0.17667846381664276,
        1.018609881401062
      ],
      "min": [
        -1.0211650133132935,
        -0.004999999888241291,
        -1.0172051191329956
      ],
      "type": "VEC3"
    },
    {
      "bufferView": 2,
      "byteOffset": 786384,
      "componentType": 5126,
      "count": 65532,
      "max": [
        1.0,
        1.0,
        1.0
      ],
      "min": [
        -1.0,
        -1.0,
        -1.0
      ],
      "type": "VEC3"
    },
    {
      "bufferView": 1,
      "componentType": 5126,
      "count": 65532,
      "max": [
        1.0,
        1.0
      ],
      "min": [
        0.0,
        0.0
      ],
      "type": "VEC2"
    },
    {
      "bufferView": 0,
      "componentType": 5125,
      "count": 199521,
      "type": "SCALAR"
    },
    {
      "bufferView": 2,
      "byteOffset": 1572768,
      "componentType": 5126,
      "count": 16054,
      "max": [
        1.0092421770095825,
        0.08833923190832138,
        1.018609881401062
      ],
      "min": [
        -1.0211650133132935,
        0.009723206050693989,
        -1.0172051191329956
      ],
      "type": "VEC3"
    },
    {
      "bufferView": 2,
      "byteOffset": 1765416,
      "componentType": 5126,
      "count": 16054,
      "max": [
        4.3785092884718324e-07,
        1.0,
        4.4693464207323785e-11
      ],
      "min": [
        -2.9190093187025923e-07,
        -1.0,
        -2.4144768216022294e-12
      ],
      "type": "VEC3"
    },
    {
      "bufferView": 1,
      "byteOffset": 524256,
      "componentType": 5126,
      "count": 16054,
      "max": [
        1.0,
        1.0
      ],
      "min": [
        0.0,
        0.0
      ],
      "type": "VEC2"
    },
    {
      "bufferView": 0,
      "byteOffset": 798084,
      "componentType": 5125,
      "count": 50028,
      "type": "SCALAR"
    },
    {
      "bufferView": 2,
      "byteOffset": 1958064,
      "componentType": 5126,
      "count": 3319,
      "max": [
        1.0,
        0.0,
        1.0
      ],
      "min": [
        -1.0,
        -0.02200000174343586,
        -1.0
      ],
      "type": "VEC3"
    },
    {
      "bufferView": 2,
      "byteOffset": 1997892,
      "componentType": 5126,
      "count": 3319,
      "max": [
        0.9988675713539124,
        1.0,
        0.998869001865387
      ],
      "min": [
        -0.998867392539978,
        -1.0,
        -0.9988681077957153
      ],
      "type": "VEC3"
    },
    {
      "bufferView": 1,
      "byteOffset": 652688,
      "componentType": 5126,
      "count": 3319,
      "max": [
        1.0,
        1.0
      ],
      "min": [
        0.0,
        0.0
      ],
      "type": "VEC2"
    },
    {
      "bufferView": 0,
      "byteOffset": 998196,
      "componentType": 5125,
      "count": 13653,
      "type": "SCALAR"
    },
    {
      "bufferView": 2,
      "byteOffset": 2037720,
      "componentType": 5126,
      "count": 7644,
      "max": [
        1.1370000839233398,
        0.13700003921985626,
        1.1370000839233398
      ],
      "min": [
        -1.1370000839233398,
        -12.162861824035645,
        -1.1369999647140503
      ],
      "type": "VEC3"
    },
    {
      "bufferView": 2,
      "byteOffset": 2129448,
      "componentType": 5126,
      "count": 7644,
      "max": [
        1.0,
        0.9999451637268066,
        1.0
      ],
      "min": [
        -1.0,
        -0.9999451637268066,
        -1.0
      ],
      "type": "VEC3"
    },
    {
      "bufferView": 1,
      "byteOffset": 679240,
      "componentType": 5126,
      "count": 7644,
      "max": [
        1.0,
        1.0
      ],
      "min": [
        0.0,
        0.0
      ],
      "type": "VEC2"
    },
    {
      "bufferView": 0,
      "byteOffset": 1052808,
      "componentType": 5125,
      "count": 41472,
      "type": "SCALAR"
    }
  ],
  "asset": {
    "extras": {
      "author": "hitheredearjohn (https://sketchfab.com/hitheredearjohn)",
      "license": "CC-BY-4.0 (http://creativecommons.org/licenses/by/4.0/)",
      "source": "https://sketchfab.com/3d-models/notebook-6156c5344c1d4019a3222e43dc7ee813",
      "title": "Notebook"
    },
    "generator": "Sketchfab-15.55.0",
    "version": "2.0"
  },
  "bufferViews": [
    {
      "buffer": 0,
      "byteLength": 1218696,
      "name": "floatBufferViews",
      "target": 34963
    },
    {
      "buffer": 0,
      "byteLength": 740392,
      "byteOffset": 1218696,
      "byteStride": 8,
      "name": "floatBufferViews",
      "target": 34962
    },
    {
      "buffer": 0,
      "byteLength": 2221176,
      "byteOffset": 1959088,
      "byteStride": 12,
      "name": "floatBufferViews",
      "target": 34962
    }
  ],
  "buffers": [
    {
      "byteLength": 4180264,
      "uri": "scene.bin"
    }
  ],
  "materials": [
    {
      "doubleSided": true,
      "name": "material_0",
      "pbrMetallicRoughness": {
        "baseColorFactor": [
          0.21404114048223255,
          0.09898880504203246,
          0.007149217809741786,
          1.0
        ],
        "metallicFactor": 0.0,
        "roughnessFactor": 0.6
      }
    },
    {
      "doubleSided": true,
      "name": "Material.001",
      "pbrMetallicRoughness": {
        "baseColorFactor": [
          0.6994024055223932,
          0.6994024055223932,
          0.6994024055223932,
          1.0
        ],
        "metallicFactor": 0.0,
        "roughnessFactor": 0.5201186067418797
      }
    },
    {
      "doubleSided": true,
      "name": "Material",
      "pbrMetallicRoughness": {
        "baseColorFactor": [
          0.8,
          0.8,
          0.8,
          1.0
        ],
        "roughnessFactor": 0.20245659911799158
      }
    }
  ],
  "meshes": [
    {
      "name": "Object_0",
      "primitives": [
        {
          "attributes": {
            "NORMAL": 1,
            "POSITION": 0,
            "TEXCOORD_0": 2
          },
          "indices": 3,
          "material": 1,
          "mode": 4
        }
      ]
    },
    {
      "name": "Object_1",
      "primitives": [
        {
          "attributes": {
            "NORMAL": 5,
            "POSITION": 4,
            "TEXCOORD_0": 6
          },
          "indices": 7,
          "material": 1,
          "mode": 4
        }
      ]
    },
    {
      "name": "Object_2",
      "primitives": [
        {
          "attributes": {
            "NORMAL": 9,
            "POSITION": 8,
            "TEXCOORD_0": 10
          },
          "indices": 11,
          "material": 0,
          "mode": 4
        }
      ]
    },
    {
      "name": "Object_3",
      "primitives": [
        {
          "attributes": {
            "NORMAL": 13,
            "POSITION": 12,
            "TEXCOORD_0": 14
          },
          "indices": 15,
          "material": 2,
          "mode": 4
        }
      ]
    }
  ],
  "nodes": [
    {
      "children": [
        1
      ],
      "matrix": [
        1.0,
        0.0,
        0.0,
        0.0,
        0.0,
        2.220446049250313e-16,
        -1.0,
        0.0,
        0.0,
        1.0,
        2.220446049250313e-16,
        0.0,
        0.0,
        0.0,
        0.0,
        1.0
      ],
      "name": "Sketchfab_model"
    },
    {
      "children": [
        2
      ],
      "name": "root"
    },
    {
      "children": [
        3,
        6,
        8
      ],
      "matrix": [
        1.0,
        0.0,
        0.0,
        0.0,
        0.0,
        2.220446049250313e-16,
        1.0,
        0.0,
        0.0,
        -1.0,
        2.220446049250313e-16,
        0.0,
        0.0,
        0.0,
        0.0,
        1.0
      ],
      "name": "GLTF_SceneRootNode"
    },
    {
      "children": [
        4,
        5
      ],
      "matrix": [
        1.241919994354248,
        0.0,
        0.0,
        0.0,
        0.0,
        1.0,
        0.0,
        0.0,
        0.0,
        0.0,
        1.0,
        0.0,
        0.0,
        0.0,
        0.0,
        1.0
      ],
      "name": "Plane_0"
    },
    {
      "mesh": 0,
      "name": "Object_4"
    },
    {
      "mesh": 1,
      "name": "Object_5"
    },
    {
      "children": [
        7
      ],
      "matrix": [
        1.241919994354248,
        0.0,
        0.0,
        0.0,
        0.0,
        1.0,
        0.0,
        0.0,
        0.0,
        0.0,
        1.0,
        0.0,
        0.0,
        -0.005167859606444836,
        0.0,
        1.0
      ],
      "name": "Plane.001_1"
    },
    {
      "mesh": 2,
      "name": "Object_7"
    },
    {
      "children": [
        9
      ],
      "matrix": [
        0.13906702399253845,
        0.0,
        0.0,
        0.0,
        0.0,
        0.0,
        0.13906702399253845,
        0.0,
        0.0,
        -0.13906702399253845,
        0.0,
        0.0,
        -1.2023168802261353,
        0.0692463144659996,
        0.8420605659484863,
        1.0
      ],
      "name": "BezierCircle_2"
    },
    {
      "mesh": 3,
      "name": "Object_9"
    }
  ],
  "scene": 0,
  "scenes": [
    {
      "name": "Sketchfab_Scene",
      "nodes": [
        0
      ]
    }
  ]
}
